<?xml version="1.0" encoding="utf-8"?>
<!-- Generator: Adobe Illustrator 24.1.1, SVG Export Plug-In . SVG Version: 6.00 Build 0)  -->
<svg version="1.1" id="Capa_1" xmlns="http://www.w3.org/2000/svg" xmlns:xlink="http://www.w3.org/1999/xlink" x="0px" y="0px"
	 width="20px" height="20px" viewBox="0 0 20 20" style="enable-background:new 0 0 20 20;" xml:space="preserve">
<path d="M19.3,17.9L1.6,0.2c-0.1-0.1-0.4-0.1-0.5,0L0.2,1.1c-0.1,0.1-0.1,0.4,0,0.5l17.7,17.7c0.1,0.1,0.4,0.1,0.5,0l0.9-0.9
	C19.4,18.2,19.4,18,19.3,17.9z"/>
<g>
	<path d="M13.3,9.1l4-5.4c0.8-1.1,1.6-2.2,1.6-2.2c0.4-0.6,0-1.5-0.8-1.5H4.2L13.3,9.1z"/>
	<path d="M12.5,11.1l-11-11C1.3,0.2,1.2,0.3,1.1,0.5C0.9,0.8,0.9,1,1.1,1.3c0.1,0.3,1.3,1.9,1.7,2.4l4.5,6.2
		c0.3,0.4,0.2,0.1,0.2,6.7c0,1,0.6,1.2,3.3,3.3c0.7,0.5,1.6,0,1.6-0.8C12.5,14.3,12.4,12.2,12.5,11.1z"/>
</g>
</svg>
