<?xml version="1.0" encoding="utf-8"?>
<!-- Generator: Adobe Illustrator 24.1.1, SVG Export Plug-In . SVG Version: 6.00 Build 0)  -->
<svg version="1.1" id="Capa_1" xmlns="http://www.w3.org/2000/svg" xmlns:xlink="http://www.w3.org/1999/xlink" x="0px" y="0px"
	 width="20px" height="20px" viewBox="0 0 20 20" style="enable-background:new 0 0 20 20;" xml:space="preserve">
<path d="M1.1,0.5C1.2,0.2,1.6,0,1.9,0l16.2,0c0.8,0,1.2,0.9,0.8,1.5c0,0-0.8,1.1-1.6,2.2l-4.5,6.2c-0.3,0.5-0.2,0.1-0.2,9.1
	c0,0.8-0.9,1.3-1.6,0.8c-2.8-2.1-3.3-2.3-3.3-3.3c0-6.6,0.1-6.2-0.2-6.7L2.8,3.7C2.4,3.2,1.2,1.6,1.1,1.3C0.9,1,0.9,0.8,1.1,0.5z"/>
</svg>
