<?xml version="1.0" encoding="utf-8"?>
<!-- Generator: Adobe Illustrator 24.1.1, SVG Export Plug-In . SVG Version: 6.00 Build 0)  -->
<svg version="1.1" id="Capa_1" xmlns="http://www.w3.org/2000/svg" xmlns:xlink="http://www.w3.org/1999/xlink" x="0px" y="0px"
	 width="20px" height="20px" viewBox="0 0 20 20" style="enable-background:new 0 0 20 20;" xml:space="preserve">
<path d="M19.9,9.6c-0.2-0.2-4.4-6-9.9-6c-5.4,0-9.7,5.7-9.9,6C0,9.8,0,10.2,0.1,10.4c0.2,0.2,4.4,6,9.9,6c5.4,0,9.7-5.7,9.9-6
	C20,10.2,20,9.8,19.9,9.6z M10,14.4c-3.3,0-6.3-2.9-7.6-4.4C3.7,8.6,6.7,5.6,10,5.6c3.3,0,6.3,2.9,7.6,4.4
	C16.3,11.4,13.3,14.4,10,14.4z"/>
<circle cx="10" cy="10" r="3.4"/>
<path d="M10,11.4c-0.8,0-1.4-0.6-1.4-1.4c0-0.8,0.6-1.4,1.4-1.4s1.4,0.6,1.4,1.4C11.4,10.8,10.8,11.4,10,11.4z"/>
</svg>
